<svg width="511" height="70" viewBox="0 0 211 58" fill="none" xmlns="http://www.w3.org/2000/svg">
<g clip-path="url(#clip0_1_20)">
<rect width="211" height="50" fill="#370617;"/>
<path d="M40.4003 34.2188C40.994 34.3594 41.5253 34.4688 41.994 34.5469C42.4784 34.6094 42.8847 34.6562 43.2128 34.6875C43.6034 34.7344 43.9472 34.75 44.244 34.7344C44.619 34.7188 45.0878 34.6641 45.6503 34.5703C46.2128 34.4766 46.8065 34.3828 47.4315 34.2891C48.0565 34.1953 48.6737 34.1172 49.2831 34.0547C49.8925 33.9922 50.4237 33.9844 50.8769 34.0312C51.33 34.0781 51.8065 34.1875 52.3065 34.3594C52.8065 34.5156 53.2753 34.7344 53.7128 35.0156C54.1503 35.2812 54.5253 35.6094 54.8378 36C55.1659 36.3906 55.369 36.8438 55.4472 37.3594C55.5253 37.8594 55.4784 38.3984 55.3065 38.9766C55.1347 39.5391 54.8612 40.0938 54.4862 40.6406C54.1112 41.1719 53.6425 41.6641 53.08 42.1172C52.5175 42.5703 51.8925 42.9375 51.205 43.2188C50.6581 43.4219 50.0644 43.5781 49.4237 43.6875C48.8769 43.7812 48.2362 43.8438 47.5019 43.875C46.7831 43.8906 46.0175 43.8125 45.205 43.6406C45.0956 44.0938 45.0331 44.5156 45.0175 44.9062C45.0175 45.2812 45.0331 45.6172 45.0644 45.9141C45.1112 46.2578 45.1737 46.5703 45.2519 46.8516C45.3456 47.1328 45.4628 47.4609 45.6034 47.8359C45.7284 48.1484 45.869 48.5312 46.0253 48.9844C46.1972 49.4219 46.4003 49.9141 46.6347 50.4609C46.3534 50.4609 46.08 50.4688 45.8144 50.4844C45.5487 50.4844 45.3065 50.4922 45.0878 50.5078C44.8378 50.5234 44.6034 50.5391 44.3847 50.5547C44.1347 50.5703 43.8534 50.6016 43.5409 50.6484C43.2753 50.6797 42.9394 50.7266 42.5331 50.7891C42.1425 50.8516 41.6972 50.9297 41.1972 51.0234C41.5253 50.5547 41.7831 50.125 41.9706 49.7344C42.1737 49.3281 42.3222 48.9766 42.4159 48.6797C42.5253 48.3359 42.5956 48.0234 42.6269 47.7422C42.6425 47.5078 42.6425 47.0938 42.6269 46.5C42.6269 45.9062 42.619 45.2188 42.6034 44.4375C42.5878 43.6562 42.5644 42.8359 42.5331 41.9766C42.5019 41.1172 42.4628 40.3125 42.4159 39.5625C42.369 38.7969 42.3144 38.1406 42.2519 37.5938C42.205 37.0469 42.1581 36.6875 42.1112 36.5156C42.0487 36.3125 41.9394 36.0938 41.7831 35.8594C41.6581 35.6562 41.4784 35.4219 41.244 35.1562C41.0253 34.875 40.744 34.5625 40.4003 34.2188ZM45.2519 38.8359C45.2362 38.9922 45.2284 39.1562 45.2284 39.3281C45.2284 39.6562 45.2519 40.0781 45.2987 40.5938C45.4081 40.8594 45.5409 41.0781 45.6972 41.25C45.869 41.4219 46.0487 41.5547 46.2362 41.6484C46.4394 41.7422 46.6425 41.8047 46.8456 41.8359C47.0487 41.8672 47.2519 41.8828 47.455 41.8828C47.9237 41.8672 48.4159 41.7578 48.9315 41.5547C49.619 41.2578 50.1034 40.8359 50.3847 40.2891C50.6659 39.7422 50.8144 39.1797 50.83 38.6016C50.8456 38.0234 50.744 37.4922 50.5253 37.0078C50.3222 36.5234 50.0722 36.1953 49.7753 36.0234C49.5253 35.9141 49.205 35.8672 48.8144 35.8828C48.4706 35.8984 48.0409 35.9844 47.5253 36.1406C47.0097 36.2969 46.3769 36.5781 45.6269 36.9844C45.5487 37.2656 45.4862 37.5156 45.4394 37.7344C45.3925 37.9531 45.3534 38.1484 45.3222 38.3203C45.2909 38.5078 45.2675 38.6797 45.2519 38.8359ZM57.3456 41.5078C57.4237 41.4141 57.4706 41.2422 57.4862 40.9922C57.5175 40.7266 57.58 40.4297 57.6737 40.1016C57.7831 39.7734 57.9628 39.4297 58.2128 39.0703C58.4628 38.7109 58.869 38.375 59.4315 38.0625C59.9784 37.75 60.5097 37.5625 61.0253 37.5C61.5409 37.4375 62.0331 37.4609 62.5019 37.5703C62.9706 37.6797 63.4081 37.8516 63.8144 38.0859C64.2362 38.3203 64.619 38.5781 64.9628 38.8594C65.1972 39.0469 65.3847 39.3203 65.5253 39.6797C65.6659 40.0234 65.7753 40.4141 65.8534 40.8516C65.9315 41.2891 65.9862 41.75 66.0175 42.2344C66.0644 42.7031 66.0956 43.1641 66.1112 43.6172C66.1269 44.0547 66.1347 44.4609 66.1347 44.8359C66.1503 45.1953 66.1815 45.4922 66.2284 45.7266C66.2909 46.0703 66.4003 46.3672 66.5565 46.6172C66.7128 46.8516 66.8847 47.0547 67.0722 47.2266C67.2597 47.3828 67.4472 47.5078 67.6347 47.6016C67.8222 47.6953 67.9862 47.7656 68.1269 47.8125C68.2206 47.8594 68.3065 47.8906 68.3847 47.9062C68.5409 47.9688 68.6503 47.9688 68.7128 47.9062C68.619 48.125 68.5331 48.3125 68.455 48.4688C68.3769 48.625 68.3144 48.7578 68.2675 48.8672C68.205 48.9922 68.1503 49.0938 68.1034 49.1719C68.0565 49.2656 68.0019 49.3516 67.9394 49.4297C67.8925 49.5078 67.83 49.5938 67.7519 49.6875C67.6737 49.7812 67.5956 49.8828 67.5175 49.9922C67.3144 49.9141 67.119 49.8203 66.9315 49.7109C66.7597 49.6016 66.6034 49.5 66.4628 49.4062C66.2909 49.2969 66.1347 49.1875 65.994 49.0781C65.8534 48.9688 65.7206 48.8438 65.5956 48.7031C65.4862 48.5781 65.369 48.4453 65.244 48.3047C65.1347 48.1641 65.0409 48.0078 64.9628 47.8359C64.869 48.0391 64.6425 48.3281 64.2831 48.7031C63.9394 49.0781 63.4862 49.4219 62.9237 49.7344C62.3612 50.0312 61.705 50.2422 60.955 50.3672C60.2206 50.4922 59.4081 50.4062 58.5175 50.1094C58.1269 49.9844 57.7597 49.8047 57.4159 49.5703C57.0722 49.3203 56.7753 49.0234 56.5253 48.6797C56.2909 48.3359 56.119 47.9453 56.0097 47.5078C55.9159 47.0547 55.9237 46.5547 56.0331 46.0078C56.1425 45.4609 56.3378 45 56.619 44.625C56.9003 44.25 57.2362 43.9453 57.6269 43.7109C58.0175 43.4766 58.455 43.2969 58.9394 43.1719C59.4237 43.0469 59.9237 42.9609 60.4394 42.9141C60.8456 42.8984 61.2519 42.9219 61.6581 42.9844C62.0019 43.0469 62.3612 43.1641 62.7362 43.3359C63.1112 43.4922 63.4315 43.7344 63.6972 44.0625C63.6815 43.2344 63.6503 42.5781 63.6034 42.0938C63.5722 41.5938 63.5409 41.2109 63.5097 40.9453C63.4472 40.6328 63.3925 40.4141 63.3456 40.2891C63.2675 40.1797 63.1815 40.0547 63.0878 39.9141C63.0097 39.7734 62.9081 39.6484 62.7831 39.5391C62.6581 39.4141 62.5019 39.3125 62.3144 39.2344C62.1269 39.1562 61.9081 39.125 61.6581 39.1406C61.3925 39.1562 61.1815 39.2266 61.0253 39.3516C60.869 39.4766 60.744 39.625 60.6503 39.7969C60.5722 39.9531 60.5253 40.125 60.5097 40.3125C60.494 40.5 60.5019 40.6641 60.5331 40.8047C60.5644 40.8984 60.6112 41 60.6737 41.1094C60.7362 41.2031 60.8222 41.3047 60.9315 41.4141C61.0409 41.5234 61.1894 41.6172 61.3769 41.6953C61.0175 41.7422 60.6972 41.7812 60.4159 41.8125C60.1347 41.8281 59.8925 41.8516 59.6894 41.8828C59.455 41.9141 59.2519 41.9375 59.08 41.9531C58.9081 41.9688 58.705 42 58.4706 42.0469C58.2675 42.0781 58.0175 42.1172 57.7206 42.1641C57.4237 42.2109 57.08 42.2734 56.6894 42.3516C56.7831 42.2422 56.869 42.1406 56.9472 42.0469C57.0253 41.9375 57.0956 41.8438 57.1581 41.7656C57.2206 41.6719 57.2831 41.5859 57.3456 41.5078ZM60.8612 44.2969C60.58 44.3125 60.2987 44.3828 60.0175 44.5078C59.7362 44.6172 59.4862 44.7812 59.2675 45C59.0487 45.2031 58.8612 45.4453 58.705 45.7266C58.5644 45.9922 58.494 46.2891 58.494 46.6172C58.494 46.9453 58.5722 47.2344 58.7284 47.4844C58.9003 47.7188 59.119 47.9141 59.3847 48.0703C59.6659 48.2266 59.9628 48.3203 60.2753 48.3516C60.6034 48.3828 60.9237 48.3516 61.2362 48.2578C61.5331 48.1484 61.8144 47.9766 62.08 47.7422C62.3456 47.4922 62.5722 47.2266 62.7597 46.9453C62.9472 46.6484 63.08 46.3594 63.1581 46.0781C63.2362 45.7812 63.244 45.5391 63.1815 45.3516C63.0565 44.9453 62.7753 44.6641 62.3378 44.5078C61.9003 44.3359 61.4081 44.2656 60.8612 44.2969ZM69.205 48.4219C69.3144 47.9062 69.3925 47.4531 69.4394 47.0625C69.5019 46.6562 69.5487 46.3203 69.58 46.0547C69.6112 45.7422 69.6269 45.4766 69.6269 45.2578C69.6112 44.9922 69.5956 44.6797 69.58 44.3203C69.58 43.9453 69.5644 43.5781 69.5331 43.2188C69.5175 42.8438 69.494 42.5156 69.4628 42.2344C69.4315 41.9375 69.3925 41.7266 69.3456 41.6016C69.2831 41.4766 69.1972 41.3438 69.0878 41.2031C68.869 40.9375 68.5487 40.6797 68.1269 40.4297C68.4862 40.3516 68.7909 40.2891 69.0409 40.2422C69.3065 40.1797 69.5253 40.125 69.6972 40.0781C69.8847 40.0156 70.0487 39.9609 70.1894 39.9141C70.3144 39.8672 70.4628 39.8203 70.6347 39.7734C70.7753 39.7422 70.9472 39.7031 71.1503 39.6562C71.3534 39.6094 71.5878 39.5547 71.8534 39.4922L71.7831 41.625C72.2831 41.0312 72.7909 40.5859 73.3065 40.2891C73.8222 39.9922 74.3065 39.7812 74.7597 39.6562C75.2753 39.5 75.7831 39.4219 76.2831 39.4219C76.9081 39.4531 77.4862 39.5547 78.0175 39.7266C78.5644 39.8984 79.0331 40.1016 79.4237 40.3359C79.83 40.5547 80.1581 40.7891 80.4081 41.0391C80.6581 41.2891 80.8065 41.5078 80.8534 41.6953C81.0409 42.3047 81.0878 42.8672 80.994 43.3828C80.9003 43.8828 80.7753 44.375 80.619 44.8594C80.4784 45.3281 80.3534 45.7969 80.244 46.2656C80.1503 46.7344 80.1894 47.2422 80.3612 47.7891C80.4237 47.9297 80.4862 48.0703 80.5487 48.2109C80.6112 48.3359 80.6894 48.4609 80.7831 48.5859C80.8769 48.7109 80.9862 48.8125 81.1112 48.8906C80.9394 48.875 80.7675 48.8672 80.5956 48.8672C80.4237 48.8516 80.2675 48.8359 80.1269 48.8203C79.955 48.8047 79.7987 48.7891 79.6581 48.7734C79.5019 48.7578 79.2909 48.75 79.0253 48.75C78.5722 48.75 77.869 48.7734 76.9159 48.8203C77.0565 48.4922 77.1659 48.2188 77.244 48C77.3378 47.7656 77.4159 47.5781 77.4784 47.4375C77.5409 47.2656 77.5878 47.1328 77.619 47.0391C77.8065 46.5859 77.9159 46.0703 77.9472 45.4922C77.994 44.9141 77.955 44.3281 77.83 43.7344C77.7831 43.5312 77.705 43.2891 77.5956 43.0078C77.4862 42.7266 77.3378 42.4531 77.1503 42.1875C76.9784 41.9219 76.7675 41.6953 76.5175 41.5078C76.2831 41.3203 76.0097 41.2109 75.6972 41.1797C75.3847 41.1484 75.0331 41.2266 74.6425 41.4141C74.2675 41.6016 73.8612 41.9453 73.4237 42.4453C73.0956 42.8672 72.8378 43.3828 72.6503 43.9922C72.4784 44.5078 72.3612 45.1562 72.2987 45.9375C72.2362 46.7031 72.33 47.6016 72.58 48.6328C72.3612 48.6016 72.1581 48.5859 71.9706 48.5859C71.7831 48.5703 71.6269 48.5547 71.5019 48.5391C71.3456 48.5234 71.205 48.5078 71.08 48.4922C70.9394 48.4922 70.7831 48.4844 70.6112 48.4688C70.455 48.4688 70.2597 48.4688 70.0253 48.4688C69.7909 48.4531 69.5175 48.4375 69.205 48.4219ZM82.2597 36.2344C82.7284 36.2812 83.119 36.3203 83.4315 36.3516C83.7597 36.3828 84.0253 36.4062 84.2284 36.4219C84.4628 36.4375 84.6503 36.4453 84.7909 36.4453C84.9315 36.4609 85.119 36.4609 85.3534 36.4453C85.5565 36.4297 85.8222 36.4141 86.1503 36.3984C86.4784 36.3672 86.8925 36.3203 87.3925 36.2578C87.2831 36.4141 87.1972 36.5547 87.1347 36.6797C87.0722 36.7891 87.0175 36.8906 86.9706 36.9844L86.83 37.2656C86.7987 37.3594 86.7675 37.4531 86.7362 37.5469C86.705 37.625 86.6737 37.7188 86.6425 37.8281C86.6269 37.9375 86.6112 38.0547 86.5956 38.1797H90.205L89.8769 40.0781L86.5722 39.8906C86.494 40.6875 86.4394 41.3047 86.4081 41.7422C86.3769 42.1797 86.3456 42.5 86.3144 42.7031L86.2675 43.125C86.2206 43.7188 86.1737 44.3672 86.1269 45.0703C86.08 45.7578 86.0644 46.3984 86.08 46.9922C86.0956 47.5859 86.1503 48.0859 86.244 48.4922C86.3378 48.8828 86.5019 49.0781 86.7362 49.0781C86.9706 49.0781 87.1894 49.0156 87.3925 48.8906C87.5956 48.7656 87.7675 48.6172 87.9081 48.4453C88.0644 48.2734 88.1815 48.1016 88.2597 47.9297C88.3378 47.7422 88.3769 47.6016 88.3769 47.5078C88.3769 47.4141 88.3534 47.3047 88.3065 47.1797C88.2284 46.9453 88.0878 46.6484 87.8847 46.2891C88.3378 46.3984 88.7362 46.5078 89.08 46.6172C89.2519 46.6797 89.4081 46.7422 89.5487 46.8047C89.705 46.8672 89.8847 46.9375 90.0878 47.0156C90.2597 47.0938 90.4784 47.1875 90.744 47.2969C91.0097 47.4062 91.3222 47.5391 91.6815 47.6953C91.3378 47.7578 91.0878 47.8594 90.9315 48C90.8378 48.0625 90.7675 48.1328 90.7206 48.2109C90.6112 48.3828 90.4862 48.6172 90.3456 48.9141C90.205 49.1953 89.994 49.4766 89.7128 49.7578C89.4315 50.0391 89.0487 50.2891 88.5644 50.5078C88.0956 50.7266 87.4628 50.8516 86.6659 50.8828C85.8378 50.9141 85.205 50.7734 84.7675 50.4609C84.3456 50.1484 84.0331 49.7891 83.83 49.3828C83.6425 48.9609 83.5331 48.5469 83.5019 48.1406C83.4706 47.7344 83.4472 47.4609 83.4315 47.3203C83.4159 47.1797 83.4159 46.8281 83.4315 46.2656C83.4472 45.7031 83.4706 45.0859 83.5019 44.4141C83.5331 43.7266 83.5644 43.0703 83.5956 42.4453C83.6269 41.8047 83.6425 41.3359 83.6425 41.0391C83.6425 40.8828 83.6503 40.7188 83.6659 40.5469C83.6659 40.4062 83.6659 40.2578 83.6659 40.1016C83.6815 39.9297 83.6894 39.7656 83.6894 39.6094L80.2909 39.5859L80.1503 38.25L83.5722 38.3438C83.5409 38.1719 83.5019 38.0156 83.455 37.875C83.4237 37.7188 83.3925 37.5938 83.3612 37.5C83.3144 37.3906 83.2675 37.2969 83.2206 37.2188C83.1581 37.1406 83.0878 37.0547 83.0097 36.9609C82.9315 36.8828 82.83 36.7812 82.705 36.6562C82.58 36.5312 82.4315 36.3906 82.2597 36.2344ZM92.4784 41.5078C92.5565 41.4141 92.6034 41.2422 92.619 40.9922C92.6503 40.7266 92.7128 40.4297 92.8065 40.1016C92.9159 39.7734 93.0956 39.4297 93.3456 39.0703C93.5956 38.7109 94.0019 38.375 94.5644 38.0625C95.1112 37.75 95.6425 37.5625 96.1581 37.5C96.6737 37.4375 97.1659 37.4609 97.6347 37.5703C98.1034 37.6797 98.5409 37.8516 98.9472 38.0859C99.369 38.3203 99.7519 38.5781 100.096 38.8594C100.33 39.0469 100.517 39.3203 100.658 39.6797C100.799 40.0234 100.908 40.4141 100.986 40.8516C101.064 41.2891 101.119 41.75 101.15 42.2344C101.197 42.7031 101.228 43.1641 101.244 43.6172C101.26 44.0547 101.267 44.4609 101.267 44.8359C101.283 45.1953 101.314 45.4922 101.361 45.7266C101.424 46.0703 101.533 46.3672 101.689 46.6172C101.846 46.8516 102.017 47.0547 102.205 47.2266C102.392 47.3828 102.58 47.5078 102.767 47.6016C102.955 47.6953 103.119 47.7656 103.26 47.8125C103.353 47.8594 103.439 47.8906 103.517 47.9062C103.674 47.9688 103.783 47.9688 103.846 47.9062C103.752 48.125 103.666 48.3125 103.588 48.4688C103.51 48.625 103.447 48.7578 103.4 48.8672C103.338 48.9922 103.283 49.0938 103.236 49.1719C103.189 49.2656 103.135 49.3516 103.072 49.4297C103.025 49.5078 102.963 49.5938 102.885 49.6875C102.807 49.7812 102.728 49.8828 102.65 49.9922C102.447 49.9141 102.252 49.8203 102.064 49.7109C101.892 49.6016 101.736 49.5 101.596 49.4062C101.424 49.2969 101.267 49.1875 101.127 49.0781C100.986 48.9688 100.853 48.8438 100.728 48.7031C100.619 48.5781 100.502 48.4453 100.377 48.3047C100.267 48.1641 100.174 48.0078 100.096 47.8359C100.002 48.0391 99.7753 48.3281 99.4159 48.7031C99.0722 49.0781 98.619 49.4219 98.0565 49.7344C97.494 50.0312 96.8378 50.2422 96.0878 50.3672C95.3534 50.4922 94.5409 50.4062 93.6503 50.1094C93.2597 49.9844 92.8925 49.8047 92.5487 49.5703C92.205 49.3203 91.9081 49.0234 91.6581 48.6797C91.4237 48.3359 91.2519 47.9453 91.1425 47.5078C91.0487 47.0547 91.0565 46.5547 91.1659 46.0078C91.2753 45.4609 91.4706 45 91.7519 44.625C92.0331 44.25 92.369 43.9453 92.7597 43.7109C93.1503 43.4766 93.5878 43.2969 94.0722 43.1719C94.5565 43.0469 95.0565 42.9609 95.5722 42.9141C95.9784 42.8984 96.3847 42.9219 96.7909 42.9844C97.1347 43.0469 97.494 43.1641 97.869 43.3359C98.244 43.4922 98.5644 43.7344 98.83 44.0625C98.8144 43.2344 98.7831 42.5781 98.7362 42.0938C98.705 41.5938 98.6737 41.2109 98.6425 40.9453C98.58 40.6328 98.5253 40.4141 98.4784 40.2891C98.4003 40.1797 98.3144 40.0547 98.2206 39.9141C98.1425 39.7734 98.0409 39.6484 97.9159 39.5391C97.7909 39.4141 97.6347 39.3125 97.4472 39.2344C97.2597 39.1562 97.0409 39.125 96.7909 39.1406C96.5253 39.1562 96.3144 39.2266 96.1581 39.3516C96.0019 39.4766 95.8769 39.625 95.7831 39.7969C95.705 39.9531 95.6581 40.125 95.6425 40.3125C95.6269 40.5 95.6347 40.6641 95.6659 40.8047C95.6972 40.8984 95.744 41 95.8065 41.1094C95.869 41.2031 95.955 41.3047 96.0644 41.4141C96.1737 41.5234 96.3222 41.6172 96.5097 41.6953C96.1503 41.7422 95.83 41.7812 95.5487 41.8125C95.2675 41.8281 95.0253 41.8516 94.8222 41.8828C94.5878 41.9141 94.3847 41.9375 94.2128 41.9531C94.0409 41.9688 93.8378 42 93.6034 42.0469C93.4003 42.0781 93.1503 42.1172 92.8534 42.1641C92.5565 42.2109 92.2128 42.2734 91.8222 42.3516C91.9159 42.2422 92.0019 42.1406 92.08 42.0469C92.1581 41.9375 92.2284 41.8438 92.2909 41.7656C92.3534 41.6719 92.4159 41.5859 92.4784 41.5078ZM95.994 44.2969C95.7128 44.3125 95.4315 44.3828 95.1503 44.5078C94.869 44.6172 94.619 44.7812 94.4003 45C94.1815 45.2031 93.994 45.4453 93.8378 45.7266C93.6972 45.9922 93.6269 46.2891 93.6269 46.6172C93.6269 46.9453 93.705 47.2344 93.8612 47.4844C94.0331 47.7188 94.2519 47.9141 94.5175 48.0703C94.7987 48.2266 95.0956 48.3203 95.4081 48.3516C95.7362 48.3828 96.0565 48.3516 96.369 48.2578C96.6659 48.1484 96.9472 47.9766 97.2128 47.7422C97.4784 47.4922 97.705 47.2266 97.8925 46.9453C98.08 46.6484 98.2128 46.3594 98.2909 46.0781C98.369 45.7812 98.3769 45.5391 98.3144 45.3516C98.1894 44.9453 97.9081 44.6641 97.4706 44.5078C97.0331 44.3359 96.5409 44.2656 95.994 44.2969ZM104.338 48.4219C104.447 47.9062 104.525 47.4531 104.572 47.0625C104.635 46.6562 104.682 46.3203 104.713 46.0547C104.744 45.7422 104.76 45.4766 104.76 45.2578C104.744 44.9922 104.728 44.6797 104.713 44.3203C104.713 43.9453 104.697 43.5781 104.666 43.2188C104.65 42.8438 104.627 42.5156 104.596 42.2344C104.564 41.9375 104.525 41.7266 104.478 41.6016C104.416 41.4766 104.33 41.3438 104.221 41.2031C104.002 40.9375 103.682 40.6797 103.26 40.4297C103.619 40.3516 103.924 40.2891 104.174 40.2422C104.439 40.1797 104.658 40.125 104.83 40.0781C105.017 40.0156 105.182 39.9609 105.322 39.9141C105.447 39.8672 105.596 39.8203 105.767 39.7734C105.908 39.7422 106.08 39.7031 106.283 39.6562C106.486 39.6094 106.721 39.5547 106.986 39.4922L106.916 41.625C107.416 41.0312 107.924 40.5859 108.439 40.2891C108.955 39.9922 109.439 39.7812 109.892 39.6562C110.408 39.5 110.916 39.4219 111.416 39.4219C112.041 39.4531 112.619 39.5547 113.15 39.7266C113.697 39.8984 114.166 40.1016 114.557 40.3359C114.963 40.5547 115.291 40.7891 115.541 41.0391C115.791 41.2891 115.939 41.5078 115.986 41.6953C116.174 42.3047 116.221 42.8672 116.127 43.3828C116.033 43.8828 115.908 44.375 115.752 44.8594C115.611 45.3281 115.486 45.7969 115.377 46.2656C115.283 46.7344 115.322 47.2422 115.494 47.7891C115.557 47.9297 115.619 48.0703 115.682 48.2109C115.744 48.3359 115.822 48.4609 115.916 48.5859C116.01 48.7109 116.119 48.8125 116.244 48.8906C116.072 48.875 115.9 48.8672 115.728 48.8672C115.557 48.8516 115.4 48.8359 115.26 48.8203C115.088 48.8047 114.932 48.7891 114.791 48.7734C114.635 48.7578 114.424 48.75 114.158 48.75C113.705 48.75 113.002 48.7734 112.049 48.8203C112.189 48.4922 112.299 48.2188 112.377 48C112.471 47.7656 112.549 47.5781 112.611 47.4375C112.674 47.2656 112.721 47.1328 112.752 47.0391C112.939 46.5859 113.049 46.0703 113.08 45.4922C113.127 44.9141 113.088 44.3281 112.963 43.7344C112.916 43.5312 112.838 43.2891 112.728 43.0078C112.619 42.7266 112.471 42.4531 112.283 42.1875C112.111 41.9219 111.9 41.6953 111.65 41.5078C111.416 41.3203 111.142 41.2109 110.83 41.1797C110.517 41.1484 110.166 41.2266 109.775 41.4141C109.4 41.6016 108.994 41.9453 108.557 42.4453C108.228 42.8672 107.971 43.3828 107.783 43.9922C107.611 44.5078 107.494 45.1562 107.432 45.9375C107.369 46.7031 107.463 47.6016 107.713 48.6328C107.494 48.6016 107.291 48.5859 107.103 48.5859C106.916 48.5703 106.76 48.5547 106.635 48.5391C106.478 48.5234 106.338 48.5078 106.213 48.4922C106.072 48.4922 105.916 48.4844 105.744 48.4688C105.588 48.4688 105.392 48.4688 105.158 48.4688C104.924 48.4531 104.65 48.4375 104.338 48.4219ZM119.432 41.5078C119.51 41.4141 119.557 41.2422 119.572 40.9922C119.603 40.7266 119.666 40.4297 119.76 40.1016C119.869 39.7734 120.049 39.4297 120.299 39.0703C120.549 38.7109 120.955 38.375 121.517 38.0625C122.064 37.75 122.596 37.5625 123.111 37.5C123.627 37.4375 124.119 37.4609 124.588 37.5703C125.057 37.6797 125.494 37.8516 125.9 38.0859C126.322 38.3203 126.705 38.5781 127.049 38.8594C127.283 39.0469 127.471 39.3203 127.611 39.6797C127.752 40.0234 127.861 40.4141 127.939 40.8516C128.017 41.2891 128.072 41.75 128.103 42.2344C128.15 42.7031 128.182 43.1641 128.197 43.6172C128.213 44.0547 128.221 44.4609 128.221 44.8359C128.236 45.1953 128.267 45.4922 128.314 45.7266C128.377 46.0703 128.486 46.3672 128.642 46.6172C128.799 46.8516 128.971 47.0547 129.158 47.2266C129.346 47.3828 129.533 47.5078 129.721 47.6016C129.908 47.6953 130.072 47.7656 130.213 47.8125C130.307 47.8594 130.392 47.8906 130.471 47.9062C130.627 47.9688 130.736 47.9688 130.799 47.9062C130.705 48.125 130.619 48.3125 130.541 48.4688C130.463 48.625 130.4 48.7578 130.353 48.8672C130.291 48.9922 130.236 49.0938 130.189 49.1719C130.142 49.2656 130.088 49.3516 130.025 49.4297C129.978 49.5078 129.916 49.5938 129.838 49.6875C129.76 49.7812 129.682 49.8828 129.603 49.9922C129.4 49.9141 129.205 49.8203 129.017 49.7109C128.846 49.6016 128.689 49.5 128.549 49.4062C128.377 49.2969 128.221 49.1875 128.08 49.0781C127.939 48.9688 127.807 48.8438 127.682 48.7031C127.572 48.5781 127.455 48.4453 127.33 48.3047C127.221 48.1641 127.127 48.0078 127.049 47.8359C126.955 48.0391 126.728 48.3281 126.369 48.7031C126.025 49.0781 125.572 49.4219 125.01 49.7344C124.447 50.0312 123.791 50.2422 123.041 50.3672C122.307 50.4922 121.494 50.4062 120.603 50.1094C120.213 49.9844 119.846 49.8047 119.502 49.5703C119.158 49.3203 118.861 49.0234 118.611 48.6797C118.377 48.3359 118.205 47.9453 118.096 47.5078C118.002 47.0547 118.01 46.5547 118.119 46.0078C118.228 45.4609 118.424 45 118.705 44.625C118.986 44.25 119.322 43.9453 119.713 43.7109C120.103 43.4766 120.541 43.2969 121.025 43.1719C121.51 43.0469 122.01 42.9609 122.525 42.9141C122.932 42.8984 123.338 42.9219 123.744 42.9844C124.088 43.0469 124.447 43.1641 124.822 43.3359C125.197 43.4922 125.517 43.7344 125.783 44.0625C125.767 43.2344 125.736 42.5781 125.689 42.0938C125.658 41.5938 125.627 41.2109 125.596 40.9453C125.533 40.6328 125.478 40.4141 125.432 40.2891C125.353 40.1797 125.267 40.0547 125.174 39.9141C125.096 39.7734 124.994 39.6484 124.869 39.5391C124.744 39.4141 124.588 39.3125 124.4 39.2344C124.213 39.1562 123.994 39.125 123.744 39.1406C123.478 39.1562 123.267 39.2266 123.111 39.3516C122.955 39.4766 122.83 39.625 122.736 39.7969C122.658 39.9531 122.611 40.125 122.596 40.3125C122.58 40.5 122.588 40.6641 122.619 40.8047C122.65 40.8984 122.697 41 122.76 41.1094C122.822 41.2031 122.908 41.3047 123.017 41.4141C123.127 41.5234 123.275 41.6172 123.463 41.6953C123.103 41.7422 122.783 41.7812 122.502 41.8125C122.221 41.8281 121.978 41.8516 121.775 41.8828C121.541 41.9141 121.338 41.9375 121.166 41.9531C120.994 41.9688 120.791 42 120.557 42.0469C120.353 42.0781 120.103 42.1172 119.807 42.1641C119.51 42.2109 119.166 42.2734 118.775 42.3516C118.869 42.2422 118.955 42.1406 119.033 42.0469C119.111 41.9375 119.182 41.8438 119.244 41.7656C119.307 41.6719 119.369 41.5859 119.432 41.5078ZM122.947 44.2969C122.666 44.3125 122.385 44.3828 122.103 44.5078C121.822 44.6172 121.572 44.7812 121.353 45C121.135 45.2031 120.947 45.4453 120.791 45.7266C120.65 45.9922 120.58 46.2891 120.58 46.6172C120.58 46.9453 120.658 47.2344 120.814 47.4844C120.986 47.7188 121.205 47.9141 121.471 48.0703C121.752 48.2266 122.049 48.3203 122.361 48.3516C122.689 48.3828 123.01 48.3516 123.322 48.2578C123.619 48.1484 123.9 47.9766 124.166 47.7422C124.432 47.4922 124.658 47.2266 124.846 46.9453C125.033 46.6484 125.166 46.3594 125.244 46.0781C125.322 45.7812 125.33 45.5391 125.267 45.3516C125.142 44.9453 124.861 44.6641 124.424 44.5078C123.986 44.3359 123.494 44.2656 122.947 44.2969ZM131.103 51.6562C131.26 51.4219 131.385 51.2031 131.478 51C131.572 50.7969 131.65 50.625 131.713 50.4844C131.775 50.3125 131.822 50.1562 131.853 50.0156C131.869 49.9219 131.877 49.6484 131.877 49.1953C131.877 48.7422 131.861 48.1719 131.83 47.4844C131.814 46.7969 131.791 46.0234 131.76 45.1641C131.744 44.3047 131.713 43.4297 131.666 42.5391C131.635 41.6484 131.596 40.7812 131.549 39.9375C131.517 39.0938 131.486 38.3359 131.455 37.6641C131.424 36.9766 131.392 36.4141 131.361 35.9766C131.33 35.5391 131.307 35.2891 131.291 35.2266C131.26 35.1328 131.205 35.0391 131.127 34.9453C130.971 34.7578 130.705 34.5781 130.33 34.4062C131.127 34.2031 131.736 34.0391 132.158 33.9141C132.408 33.8516 132.627 33.7891 132.814 33.7266C132.986 33.6641 133.158 33.6016 133.33 33.5391C133.471 33.4766 133.627 33.4062 133.799 33.3281C133.971 33.2344 134.127 33.1328 134.267 33.0234C134.189 33.4766 134.127 33.9141 134.08 34.3359C134.033 34.7578 133.994 35.1484 133.963 35.5078C133.932 35.9141 133.916 36.3047 133.916 36.6797C133.838 37.4453 133.791 38.2812 133.775 39.1875C133.775 40.0781 133.783 40.9844 133.799 41.9062C133.814 42.8281 133.846 43.7266 133.892 44.6016C133.939 45.4766 133.986 46.2734 134.033 46.9922C134.096 47.6953 134.15 48.2969 134.197 48.7969C134.26 49.2812 134.307 49.5938 134.338 49.7344C134.4 49.9688 134.463 50.1953 134.525 50.4141C134.588 50.6016 134.658 50.7969 134.736 51C134.814 51.2188 134.908 51.3906 135.017 51.5156H132.744C132.541 51.5156 132.346 51.5234 132.158 51.5391C131.986 51.5547 131.807 51.5703 131.619 51.5859C131.432 51.6016 131.26 51.625 131.103 51.6562ZM140.971 34.2422C141.471 34.3672 141.947 34.4609 142.4 34.5234C142.853 34.5859 143.252 34.6328 143.596 34.6641C144.002 34.7109 144.377 34.7266 144.721 34.7109C145.158 34.7109 145.705 34.6719 146.361 34.5938C147.033 34.5156 147.721 34.4453 148.424 34.3828C149.127 34.3047 149.799 34.2578 150.439 34.2422C151.096 34.2109 151.627 34.25 152.033 34.3594C152.439 34.4531 152.853 34.6016 153.275 34.8047C153.713 34.9922 154.111 35.2344 154.471 35.5312C154.83 35.8125 155.127 36.1484 155.361 36.5391C155.596 36.9141 155.728 37.3438 155.76 37.8281C155.744 38.4375 155.603 39.0078 155.338 39.5391C155.119 39.9922 154.752 40.4609 154.236 40.9453C153.721 41.4141 152.978 41.7734 152.01 42.0234C152.494 42.0859 152.908 42.1953 153.252 42.3516C153.611 42.4922 153.916 42.6641 154.166 42.8672C154.432 43.0547 154.642 43.2656 154.799 43.5C154.971 43.7344 155.103 43.9688 155.197 44.2031C155.432 44.75 155.541 45.3594 155.525 46.0312C155.432 46.9062 155.252 47.6016 154.986 48.1172C154.736 48.6328 154.447 49.0312 154.119 49.3125C153.791 49.5938 153.455 49.7891 153.111 49.8984C152.767 50.0078 152.455 50.0938 152.174 50.1562C151.892 50.2188 151.549 50.25 151.142 50.25C150.736 50.25 150.299 50.2422 149.83 50.2266C149.377 50.1953 148.908 50.1719 148.424 50.1562C147.939 50.125 147.478 50.125 147.041 50.1562C146.682 50.1875 146.244 50.2188 145.728 50.25C145.291 50.2812 144.744 50.3203 144.088 50.3672C143.432 50.3984 142.666 50.4375 141.791 50.4844C141.963 50.3594 142.103 50.2188 142.213 50.0625C142.338 49.8906 142.439 49.7422 142.517 49.6172C142.596 49.4609 142.666 49.3125 142.728 49.1719C142.775 49.0469 142.814 48.7031 142.846 48.1406C142.877 47.5781 142.9 46.9062 142.916 46.125C142.932 45.3281 142.939 44.4766 142.939 43.5703C142.955 42.6484 142.947 41.7656 142.916 40.9219C142.9 40.0625 142.869 39.3047 142.822 38.6484C142.791 37.9766 142.744 37.4922 142.682 37.1953C142.588 36.8672 142.463 36.5312 142.307 36.1875C142.182 35.8906 142.002 35.5703 141.767 35.2266C141.549 34.8828 141.283 34.5547 140.971 34.2422ZM145.916 36.6328C145.916 36.6953 145.924 36.9062 145.939 37.2656C145.955 37.5781 145.971 38.0625 145.986 38.7188C146.017 39.3594 146.057 40.2734 146.103 41.4609C146.494 41.6328 146.877 41.7266 147.252 41.7422C147.627 41.7422 147.963 41.7266 148.26 41.6953C148.603 41.6484 148.932 41.5703 149.244 41.4609C149.666 41.2891 149.994 41.0078 150.228 40.6172C150.478 40.2266 150.642 39.8203 150.721 39.3984C150.814 38.9609 150.838 38.5547 150.791 38.1797C150.744 37.7891 150.642 37.5078 150.486 37.3359C150.189 37.0703 149.822 36.8516 149.385 36.6797C149.01 36.5391 148.533 36.4453 147.955 36.3984C147.392 36.3359 146.713 36.4141 145.916 36.6328ZM145.799 47.7422C146.377 48.0391 146.885 48.2344 147.322 48.3281C147.76 48.4219 148.127 48.4688 148.424 48.4688C148.767 48.4688 149.064 48.4219 149.314 48.3281C149.611 48.1875 149.9 48 150.182 47.7656C150.478 47.5156 150.697 47.2266 150.838 46.8984C150.994 46.5547 151.057 46.1797 151.025 45.7734C150.994 45.3516 150.814 44.8906 150.486 44.3906C150.189 44.0312 149.83 43.75 149.408 43.5469C149.033 43.375 148.557 43.2656 147.978 43.2188C147.416 43.1719 146.721 43.3047 145.892 43.6172L145.799 47.7422ZM158.596 41.5078C158.674 41.4141 158.721 41.2422 158.736 40.9922C158.767 40.7266 158.83 40.4297 158.924 40.1016C159.033 39.7734 159.213 39.4297 159.463 39.0703C159.713 38.7109 160.119 38.375 160.682 38.0625C161.228 37.75 161.76 37.5625 162.275 37.5C162.791 37.4375 163.283 37.4609 163.752 37.5703C164.221 37.6797 164.658 37.8516 165.064 38.0859C165.486 38.3203 165.869 38.5781 166.213 38.8594C166.447 39.0469 166.635 39.3203 166.775 39.6797C166.916 40.0234 167.025 40.4141 167.103 40.8516C167.182 41.2891 167.236 41.75 167.267 42.2344C167.314 42.7031 167.346 43.1641 167.361 43.6172C167.377 44.0547 167.385 44.4609 167.385 44.8359C167.4 45.1953 167.432 45.4922 167.478 45.7266C167.541 46.0703 167.65 46.3672 167.807 46.6172C167.963 46.8516 168.135 47.0547 168.322 47.2266C168.51 47.3828 168.697 47.5078 168.885 47.6016C169.072 47.6953 169.236 47.7656 169.377 47.8125C169.471 47.8594 169.557 47.8906 169.635 47.9062C169.791 47.9688 169.9 47.9688 169.963 47.9062C169.869 48.125 169.783 48.3125 169.705 48.4688C169.627 48.625 169.564 48.7578 169.517 48.8672C169.455 48.9922 169.4 49.0938 169.353 49.1719C169.307 49.2656 169.252 49.3516 169.189 49.4297C169.142 49.5078 169.08 49.5938 169.002 49.6875C168.924 49.7812 168.846 49.8828 168.767 49.9922C168.564 49.9141 168.369 49.8203 168.182 49.7109C168.01 49.6016 167.853 49.5 167.713 49.4062C167.541 49.2969 167.385 49.1875 167.244 49.0781C167.103 48.9688 166.971 48.8438 166.846 48.7031C166.736 48.5781 166.619 48.4453 166.494 48.3047C166.385 48.1641 166.291 48.0078 166.213 47.8359C166.119 48.0391 165.892 48.3281 165.533 48.7031C165.189 49.0781 164.736 49.4219 164.174 49.7344C163.611 50.0312 162.955 50.2422 162.205 50.3672C161.471 50.4922 160.658 50.4062 159.767 50.1094C159.377 49.9844 159.01 49.8047 158.666 49.5703C158.322 49.3203 158.025 49.0234 157.775 48.6797C157.541 48.3359 157.369 47.9453 157.26 47.5078C157.166 47.0547 157.174 46.5547 157.283 46.0078C157.392 45.4609 157.588 45 157.869 44.625C158.15 44.25 158.486 43.9453 158.877 43.7109C159.267 43.4766 159.705 43.2969 160.189 43.1719C160.674 43.0469 161.174 42.9609 161.689 42.9141C162.096 42.8984 162.502 42.9219 162.908 42.9844C163.252 43.0469 163.611 43.1641 163.986 43.3359C164.361 43.4922 164.682 43.7344 164.947 44.0625C164.932 43.2344 164.9 42.5781 164.853 42.0938C164.822 41.5938 164.791 41.2109 164.76 40.9453C164.697 40.6328 164.642 40.4141 164.596 40.2891C164.517 40.1797 164.432 40.0547 164.338 39.9141C164.26 39.7734 164.158 39.6484 164.033 39.5391C163.908 39.4141 163.752 39.3125 163.564 39.2344C163.377 39.1562 163.158 39.125 162.908 39.1406C162.642 39.1562 162.432 39.2266 162.275 39.3516C162.119 39.4766 161.994 39.625 161.9 39.7969C161.822 39.9531 161.775 40.125 161.76 40.3125C161.744 40.5 161.752 40.6641 161.783 40.8047C161.814 40.8984 161.861 41 161.924 41.1094C161.986 41.2031 162.072 41.3047 162.182 41.4141C162.291 41.5234 162.439 41.6172 162.627 41.6953C162.267 41.7422 161.947 41.7812 161.666 41.8125C161.385 41.8281 161.142 41.8516 160.939 41.8828C160.705 41.9141 160.502 41.9375 160.33 41.9531C160.158 41.9688 159.955 42 159.721 42.0469C159.517 42.0781 159.267 42.1172 158.971 42.1641C158.674 42.2109 158.33 42.2734 157.939 42.3516C158.033 42.2422 158.119 42.1406 158.197 42.0469C158.275 41.9375 158.346 41.8438 158.408 41.7656C158.471 41.6719 158.533 41.5859 158.596 41.5078ZM162.111 44.2969C161.83 44.3125 161.549 44.3828 161.267 44.5078C160.986 44.6172 160.736 44.7812 160.517 45C160.299 45.2031 160.111 45.4453 159.955 45.7266C159.814 45.9922 159.744 46.2891 159.744 46.6172C159.744 46.9453 159.822 47.2344 159.978 47.4844C160.15 47.7188 160.369 47.9141 160.635 48.0703C160.916 48.2266 161.213 48.3203 161.525 48.3516C161.853 48.3828 162.174 48.3516 162.486 48.2578C162.783 48.1484 163.064 47.9766 163.33 47.7422C163.596 47.4922 163.822 47.2266 164.01 46.9453C164.197 46.6484 164.33 46.3594 164.408 46.0781C164.486 45.7812 164.494 45.5391 164.432 45.3516C164.307 44.9453 164.025 44.6641 163.588 44.5078C163.15 44.3359 162.658 44.2656 162.111 44.2969ZM169.494 39.7734C169.791 39.7891 170.057 39.7969 170.291 39.7969C170.541 39.7812 170.752 39.7656 170.924 39.75C171.127 39.7344 171.307 39.7188 171.463 39.7031C171.697 39.6719 171.939 39.6328 172.189 39.5859C172.408 39.5547 172.635 39.5156 172.869 39.4688C173.119 39.4062 173.361 39.3359 173.596 39.2578C173.502 39.4922 173.424 39.6953 173.361 39.8672C173.299 40.0391 173.252 40.1875 173.221 40.3125C173.174 40.4531 173.15 40.5703 173.15 40.6641C173.135 40.7734 173.127 40.9062 173.127 41.0625C173.111 41.3281 173.111 41.7578 173.127 42.3516C173.939 41.6484 174.619 41.1016 175.166 40.7109C175.728 40.3203 176.174 40.0156 176.502 39.7969C176.892 39.5469 177.197 39.3828 177.416 39.3047C177.994 39.2109 178.502 39.3438 178.939 39.7031C179.127 39.8594 179.307 40.0703 179.478 40.3359C179.65 40.5859 179.799 40.9219 179.924 41.3438C180.049 41.7656 180.142 42.2734 180.205 42.8672C180.267 43.4453 180.275 44.1406 180.228 44.9531C179.9 44.9844 179.603 45.0156 179.338 45.0469C179.088 45.0781 178.877 45.1016 178.705 45.1172C178.502 45.1484 178.314 45.1641 178.142 45.1641L177.51 45.2344C177.291 45.2656 177.017 45.2969 176.689 45.3281C176.377 45.3438 175.994 45.375 175.541 45.4219C176.197 44.8906 176.619 44.4297 176.807 44.0391C177.01 43.6328 177.096 43.2969 177.064 43.0312C177.033 42.7344 176.892 42.4766 176.642 42.2578C176.346 42.0859 176.025 42.0234 175.682 42.0703C175.385 42.1016 175.041 42.2344 174.65 42.4688C174.26 42.7031 173.846 43.1406 173.408 43.7812C173.439 44.7812 173.471 45.6094 173.502 46.2656C173.549 46.9219 173.588 47.4531 173.619 47.8594C173.666 48.3281 173.705 48.6953 173.736 48.9609C173.783 49.1953 173.877 49.4453 174.017 49.7109C174.127 49.9297 174.283 50.1719 174.486 50.4375C174.689 50.7031 174.955 50.9688 175.283 51.2344C174.596 51.2031 174.033 51.2031 173.596 51.2344C173.33 51.25 173.096 51.2656 172.892 51.2812C172.674 51.3125 172.439 51.3438 172.189 51.375C171.971 51.4062 171.713 51.4375 171.416 51.4688C171.135 51.5156 170.822 51.5625 170.478 51.6094C170.603 51.4375 170.705 51.2344 170.783 51C170.861 50.7812 170.924 50.5703 170.971 50.3672C171.033 50.1328 171.08 49.8906 171.111 49.6406C171.127 49.4219 171.135 49.0938 171.135 48.6562C171.15 48.2188 171.142 47.7266 171.111 47.1797C171.096 46.6172 171.072 46.0391 171.041 45.4453C171.01 44.8359 170.971 44.2656 170.924 43.7344C170.877 43.2031 170.822 42.7422 170.76 42.3516C170.713 41.9453 170.658 41.6641 170.596 41.5078C170.517 41.3203 170.424 41.1328 170.314 40.9453C170.221 40.7734 170.103 40.5938 169.963 40.4062C169.822 40.2031 169.666 39.9922 169.494 39.7734Z" fill="white"/>
<path d="M40.2638 21.3663C38.0901 20.8172 35.7708 20.9642 33.5632 21.7886C28.5961 23.6434 25.3105 28.5908 25.3932 34.0969C25.4088 35.0758 25.8617 35.9288 26.6368 36.4384C27.3906 36.9346 28.3404 37.0266 29.2421 36.6899L64.2892 23.6029C57.6657 26.0762 53.7985 25.3213 47.7924 23.5664L40.2638 21.3663ZM55.0542 14.7584L51.0222 6.9762C50.8042 6.55363 50.4826 6.19237 50.0768 5.9141C49.6709 5.63583 49.1891 5.44628 48.6603 5.35684C48.1315 5.26739 47.5665 5.27988 46.9994 5.39357C46.4322 5.50725 45.8746 5.71978 45.3598 6.01841L33.688 12.7846C32.8818 13.2519 32.2143 13.9107 31.7809 14.6669C31.3475 15.4232 31.1704 16.2381 31.275 16.9951L31.7891 20.6715C32.2197 20.4614 32.6389 20.2355 33.0939 20.0656C35.7758 19.0641 38.5696 18.884 41.2489 19.5605L48.7769 21.7609C54.2359 23.3552 57.5885 24.2068 63.8199 21.8799C64.6369 21.5749 65.3462 21.01 65.7919 20.3096C66.2376 19.6092 66.3831 18.8306 66.1964 18.1451C65.8241 16.778 62.5469 12.4292 55.0542 14.7584Z" fill="white"/>
</g>
<defs>
<clipPath id="clip0_1_20">
<rect width="311" height="80" fill="white"/>
</clipPath>
</defs>
</svg>
